<?xml version="1.0" encoding="utf-8"?>
<!-- Generator: Adobe Illustrator 24.0.0, SVG Export Plug-In . SVG Version: 6.00 Build 0)  -->
<svg version="1.1" id="Layer_1" xmlns="http://www.w3.org/2000/svg" xmlns:xlink="http://www.w3.org/1999/xlink" x="0px" y="0px"
	 viewBox="0 0 256 256" style="enable-background:new 0 0 256 256;" xml:space="preserve">
<style type="text/css">
	.st0{fill:#382B73;}
	.st1{fill:#291B4A;}
	.st2{fill:#ED9ABC;}
	.st3{fill:#E54890;}
	.st4{fill:#D3D3D3;}
	.st5{fill:#EBE7F2;}
	.st6{fill:#F9B087;}
	.st7{fill:#FF8639;}
	.st8{fill:#65C1D6;}
	.st9{fill:#149CB2;}
</style>
<g>
	<g>
		<g>
			<g>
				<g>
					<circle class="st0" cx="128" cy="128" r="119.4"/>
				</g>
			</g>
		</g>
	</g>
	<g>
		<g>
			<g>
				<g>
					<path class="st1" d="M58.547,60.507h10.193c0.103,0,0.198,0.056,0.249,0.146l1.121,2.018c0.67,1.208,2.191,1.642,3.399,0.972
						c1.207-0.671,1.642-2.193,0.971-3.399l-1.121-2.018c-0.931-1.677-2.701-2.719-4.619-2.719H58.547
						c-2.914,0-5.284,2.37-5.284,5.284v33.711c0,3.53,2.872,6.402,6.402,6.402h32.841c3.53,0,6.402-2.872,6.402-6.402V72.949
						c0-3.53-2.872-6.402-6.402-6.402H59.666c-0.482,0-0.95,0.058-1.402,0.16v-5.916C58.263,60.635,58.391,60.507,58.547,60.507z
						 M59.666,71.547h32.841c0.773,0,1.402,0.629,1.402,1.402v21.553c0,0.773-0.629,1.402-1.402,1.402H59.666
						c-0.773,0-1.402-0.629-1.402-1.402V72.949C58.263,72.176,58.892,71.547,59.666,71.547z"/>
				</g>
			</g>
		</g>
		<g>
			<g>
				<g>
					<path class="st1" d="M110.461,60.507h10.194c0.103,0,0.198,0.056,0.249,0.146l1.121,2.018c0.669,1.208,2.19,1.642,3.399,0.972
						c1.207-0.671,1.642-2.193,0.971-3.399l-1.121-2.018c-0.931-1.677-2.701-2.719-4.619-2.719h-10.194
						c-2.914,0-5.284,2.37-5.284,5.284v33.711c0,3.53,2.872,6.402,6.402,6.402h32.842c3.53,0,6.402-2.872,6.402-6.402V72.949
						c0-3.53-2.872-6.402-6.402-6.402h-32.842c-0.482,0-0.95,0.058-1.402,0.16v-5.916C110.177,60.635,110.305,60.507,110.461,60.507
						z M111.579,71.547h32.842c0.773,0,1.402,0.629,1.402,1.402v21.553c0,0.773-0.629,1.402-1.402,1.402h-32.842
						c-0.773,0-1.402-0.629-1.402-1.402V72.949C110.177,72.176,110.806,71.547,111.579,71.547z"/>
				</g>
			</g>
		</g>
		<g>
			<g>
				<g>
					<path class="st1" d="M162.375,60.507h10.194c0.103,0,0.198,0.057,0.248,0.146l1.121,2.018c0.67,1.206,2.191,1.642,3.399,0.972
						c1.207-0.671,1.642-2.192,0.972-3.399l-1.121-2.019c-0.932-1.676-2.702-2.718-4.619-2.718h-10.194
						c-2.914,0-5.284,2.37-5.284,5.284v33.711c0,3.53,2.872,6.402,6.402,6.402h32.841c3.53,0,6.402-2.872,6.402-6.402V72.949
						c0-3.53-2.872-6.402-6.402-6.402h-32.841c-0.482,0-0.95,0.058-1.402,0.16v-5.916C162.091,60.635,162.219,60.507,162.375,60.507
						z M163.493,71.547h32.841c0.773,0,1.402,0.629,1.402,1.402v21.553c0,0.773-0.629,1.402-1.402,1.402h-32.841
						c-0.773,0-1.402-0.629-1.402-1.402V72.949C162.091,72.176,162.72,71.547,163.493,71.547z"/>
				</g>
			</g>
		</g>
		<g>
			<g>
				<g>
					<path class="st1" d="M58.547,114.302h10.193c0.103,0,0.198,0.056,0.249,0.146l1.121,2.018c0.67,1.207,2.191,1.643,3.399,0.972
						c1.207-0.671,1.642-2.193,0.971-3.399l-1.121-2.018c-0.931-1.677-2.701-2.718-4.619-2.718H58.547
						c-2.914,0-5.284,2.37-5.284,5.283v33.712c0,3.529,2.872,6.401,6.402,6.401h32.841c3.53,0,6.402-2.872,6.402-6.401v-21.554
						c0-3.53-2.872-6.402-6.402-6.402H59.666c-0.482,0-0.95,0.058-1.402,0.16v-5.916C58.263,114.429,58.391,114.302,58.547,114.302z
						 M59.666,125.341h32.841c0.773,0,1.402,0.629,1.402,1.402v21.554c0,0.772-0.629,1.401-1.402,1.401H59.666
						c-0.773,0-1.402-0.629-1.402-1.401v-21.554C58.263,125.97,58.892,125.341,59.666,125.341z"/>
				</g>
			</g>
		</g>
		<g>
			<g>
				<g>
					<path class="st1" d="M110.461,114.302h10.194c0.103,0,0.198,0.056,0.249,0.146l1.121,2.018c0.669,1.207,2.19,1.643,3.399,0.972
						c1.207-0.671,1.642-2.193,0.971-3.399l-1.121-2.018c-0.931-1.677-2.701-2.718-4.619-2.718h-10.194
						c-2.914,0-5.284,2.37-5.284,5.283v33.712c0,3.529,2.872,6.401,6.402,6.401h32.842c3.53,0,6.402-2.872,6.402-6.401v-21.554
						c0-3.53-2.872-6.402-6.402-6.402h-32.842c-0.482,0-0.95,0.058-1.402,0.16v-5.916
						C110.177,114.429,110.305,114.302,110.461,114.302z M111.579,125.341h32.842c0.773,0,1.402,0.629,1.402,1.402v21.554
						c0,0.772-0.629,1.401-1.402,1.401h-32.842c-0.773,0-1.402-0.629-1.402-1.401v-21.554
						C110.177,125.97,110.806,125.341,111.579,125.341z"/>
				</g>
			</g>
		</g>
		<g>
			<g>
				<g>
					<path class="st1" d="M162.375,114.302h10.194c0.103,0,0.198,0.056,0.248,0.146l1.121,2.018c0.67,1.206,2.191,1.643,3.399,0.972
						c1.207-0.671,1.642-2.192,0.972-3.399l-1.121-2.019c-0.932-1.676-2.701-2.717-4.619-2.717h-10.194
						c-2.914,0-5.284,2.37-5.284,5.283v33.712c0,3.529,2.872,6.401,6.402,6.401h32.841c3.53,0,6.402-2.872,6.402-6.401v-21.554
						c0-3.53-2.872-6.402-6.402-6.402h-32.841c-0.482,0-0.95,0.058-1.402,0.16v-5.916
						C162.091,114.429,162.219,114.302,162.375,114.302z M163.493,125.341h32.841c0.773,0,1.402,0.629,1.402,1.402v21.554
						c0,0.772-0.629,1.401-1.402,1.401h-32.841c-0.773,0-1.402-0.629-1.402-1.401v-21.554
						C162.091,125.97,162.72,125.341,163.493,125.341z"/>
				</g>
			</g>
		</g>
		<g>
			<g>
				<g>
					<path class="st1" d="M58.547,168.096h10.193c0.103,0,0.198,0.056,0.249,0.146l1.121,2.018c0.67,1.208,2.191,1.642,3.399,0.972
						c1.207-0.671,1.642-2.193,0.971-3.399l-1.121-2.018c-0.931-1.677-2.701-2.718-4.619-2.718H58.547
						c-2.914,0-5.284,2.37-5.284,5.284v33.711c0,3.53,2.872,6.402,6.402,6.402h32.841c3.53,0,6.402-2.872,6.402-6.402v-21.554
						c0-3.529-2.872-6.401-6.402-6.401H59.666c-0.482,0-0.95,0.058-1.402,0.16v-5.916C58.263,168.224,58.391,168.096,58.547,168.096
						z M59.666,179.136h32.841c0.773,0,1.402,0.629,1.402,1.401v21.554c0,0.773-0.629,1.402-1.402,1.402H59.666
						c-0.773,0-1.402-0.629-1.402-1.402v-21.554C58.263,179.765,58.892,179.136,59.666,179.136z"/>
				</g>
			</g>
		</g>
		<g>
			<g>
				<g>
					<path class="st1" d="M110.461,168.096h10.194c0.103,0,0.198,0.056,0.249,0.146l1.121,2.018c0.669,1.208,2.19,1.642,3.399,0.972
						c1.207-0.671,1.642-2.193,0.971-3.399l-1.121-2.018c-0.931-1.677-2.701-2.718-4.619-2.718h-10.194
						c-2.914,0-5.284,2.37-5.284,5.284v33.711c0,3.53,2.872,6.402,6.402,6.402h32.842c3.53,0,6.402-2.872,6.402-6.402v-21.554
						c0-3.529-2.872-6.401-6.402-6.401h-32.842c-0.482,0-0.95,0.058-1.402,0.16v-5.916
						C110.177,168.224,110.305,168.096,110.461,168.096z M111.579,179.136h32.842c0.773,0,1.402,0.629,1.402,1.401v21.554
						c0,0.773-0.629,1.402-1.402,1.402h-32.842c-0.773,0-1.402-0.629-1.402-1.402v-21.554
						C110.177,179.765,110.806,179.136,111.579,179.136z"/>
				</g>
			</g>
		</g>
		<g>
			<g>
				<g>
					<path class="st1" d="M162.375,168.096h10.194c0.103,0,0.198,0.056,0.248,0.146l1.121,2.018c0.67,1.206,2.191,1.642,3.399,0.972
						c1.207-0.671,1.642-2.192,0.972-3.399l-1.121-2.019c-0.932-1.676-2.701-2.717-4.619-2.717h-10.194
						c-2.914,0-5.284,2.37-5.284,5.284v33.711c0,3.53,2.872,6.402,6.402,6.402h32.841c3.53,0,6.402-2.872,6.402-6.402v-21.554
						c0-3.529-2.872-6.401-6.402-6.401h-32.841c-0.482,0-0.95,0.058-1.402,0.16v-5.916
						C162.091,168.224,162.219,168.096,162.375,168.096z M163.493,179.136h32.841c0.773,0,1.402,0.629,1.402,1.401v21.554
						c0,0.773-0.629,1.402-1.402,1.402h-32.841c-0.773,0-1.402-0.629-1.402-1.402v-21.554
						C162.091,179.765,162.72,179.136,163.493,179.136z"/>
				</g>
			</g>
		</g>
	</g>
	<g>
		<g>
			<g>
				<g>
					<g>
						<path class="st2" d="M68.741,51.507H58.547c-2.914,0-5.284,2.37-5.284,5.284v22.935c0,1.381,1.119,2.5,2.5,2.5
							s2.5-1.119,2.5-2.5V56.791c0-0.156,0.127-0.284,0.284-0.284h10.193c0.103,0,0.198,0.056,0.249,0.146l1.121,2.018
							c0.67,1.208,2.191,1.643,3.399,0.972c1.207-0.671,1.642-2.193,0.971-3.399l-1.121-2.018
							C72.429,52.549,70.659,51.507,68.741,51.507z"/>
					</g>
				</g>
			</g>
			<g>
				<g>
					<g>
						<path class="st2" d="M59.666,62.547c-3.53,0-6.402,2.872-6.402,6.402v21.553c0,3.53,2.872,6.402,6.402,6.402h32.841
							c3.53,0,6.402-2.872,6.402-6.402V68.949c0-3.53-2.872-6.402-6.402-6.402H59.666z M93.909,68.949v21.553
							c0,0.773-0.629,1.402-1.402,1.402H59.666c-0.773,0-1.402-0.629-1.402-1.402V68.949c0-0.773,0.629-1.402,1.402-1.402h32.841
							C93.28,67.547,93.909,68.176,93.909,68.949z"/>
					</g>
				</g>
			</g>
		</g>
		<g>
			<g>
				<g>
					<g>
						<path class="st8" d="M120.655,51.507h-10.194c-2.914,0-5.284,2.37-5.284,5.284v22.935c0,1.381,1.119,2.5,2.5,2.5
							s2.5-1.119,2.5-2.5V56.791c0-0.156,0.127-0.284,0.284-0.284h10.194c0.103,0,0.198,0.056,0.249,0.146l1.121,2.018
							c0.669,1.208,2.19,1.643,3.399,0.972c1.207-0.671,1.642-2.193,0.971-3.399l-1.121-2.018
							C124.343,52.549,122.573,51.507,120.655,51.507z"/>
					</g>
				</g>
			</g>
			<g>
				<g>
					<g>
						<path class="st8" d="M111.579,62.547c-3.53,0-6.402,2.872-6.402,6.402v21.553c0,3.53,2.872,6.402,6.402,6.402h32.842
							c3.53,0,6.402-2.872,6.402-6.402V68.949c0-3.53-2.872-6.402-6.402-6.402H111.579z M145.823,68.949v21.553
							c0,0.773-0.629,1.402-1.402,1.402h-32.842c-0.773,0-1.402-0.629-1.402-1.402V68.949c0-0.773,0.629-1.402,1.402-1.402h32.842
							C145.194,67.547,145.823,68.176,145.823,68.949z"/>
					</g>
				</g>
			</g>
		</g>
		<g>
			<g>
				<g>
					<g>
						<path class="st2" d="M162.091,79.726V56.791c0-0.156,0.127-0.284,0.284-0.284h10.194c0.103,0,0.198,0.057,0.248,0.146
							l1.121,2.018c0.67,1.206,2.191,1.643,3.399,0.972c1.207-0.671,1.642-2.192,0.972-3.399l-1.121-2.019
							c-0.932-1.676-2.702-2.718-4.619-2.718h-10.194c-2.914,0-5.284,2.37-5.284,5.284v22.935c0,1.381,1.119,2.5,2.5,2.5
							S162.091,81.106,162.091,79.726z"/>
					</g>
				</g>
			</g>
			<g>
				<g>
					<g>
						<path class="st2" d="M196.334,96.904c3.53,0,6.402-2.872,6.402-6.402V68.949c0-3.53-2.872-6.402-6.402-6.402h-32.841
							c-3.53,0-6.402,2.872-6.402,6.402v21.553c0,3.53,2.872,6.402,6.402,6.402H196.334z M162.091,90.502V68.949
							c0-0.773,0.629-1.402,1.402-1.402h32.841c0.773,0,1.402,0.629,1.402,1.402v21.553c0,0.773-0.629,1.402-1.402,1.402h-32.841
							C162.72,91.904,162.091,91.275,162.091,90.502z"/>
					</g>
				</g>
			</g>
		</g>
		<g>
			<g>
				<g>
					<g>
						<path class="st8" d="M68.741,105.302H58.547c-2.914,0-5.284,2.37-5.284,5.283v22.935c0,1.381,1.119,2.5,2.5,2.5
							s2.5-1.119,2.5-2.5v-22.935c0-0.156,0.127-0.283,0.284-0.283h10.193c0.103,0,0.198,0.056,0.249,0.146l1.121,2.018
							c0.67,1.207,2.191,1.643,3.399,0.972c1.207-0.671,1.642-2.193,0.971-3.399l-1.121-2.018
							C72.429,106.343,70.659,105.302,68.741,105.302z"/>
					</g>
				</g>
			</g>
			<g>
				<g>
					<g>
						<path class="st8" d="M59.666,116.341c-3.53,0-6.402,2.872-6.402,6.402v21.554c0,3.529,2.872,6.401,6.402,6.401h32.841
							c3.53,0,6.402-2.872,6.402-6.401v-21.554c0-3.53-2.872-6.402-6.402-6.402H59.666z M93.909,122.743v21.554
							c0,0.772-0.629,1.401-1.402,1.401H59.666c-0.773,0-1.402-0.629-1.402-1.401v-21.554c0-0.773,0.629-1.402,1.402-1.402h32.841
							C93.28,121.341,93.909,121.97,93.909,122.743z"/>
					</g>
				</g>
			</g>
		</g>
		<g>
			<g>
				<g>
					<g>
						<path class="st4" d="M120.655,105.302h-10.194c-2.914,0-5.284,2.37-5.284,5.283v22.935c0,1.381,1.119,2.5,2.5,2.5
							s2.5-1.119,2.5-2.5v-22.935c0-0.156,0.127-0.283,0.284-0.283h10.194c0.103,0,0.198,0.056,0.249,0.146l1.121,2.018
							c0.669,1.207,2.19,1.643,3.399,0.972c1.207-0.671,1.642-2.193,0.971-3.399l-1.121-2.018
							C124.343,106.343,122.573,105.302,120.655,105.302z"/>
					</g>
				</g>
			</g>
			<g>
				<g>
					<g>
						<path class="st4" d="M111.579,116.341c-3.53,0-6.402,2.872-6.402,6.402v21.554c0,3.529,2.872,6.401,6.402,6.401h32.842
							c3.53,0,6.402-2.872,6.402-6.401v-21.554c0-3.53-2.872-6.402-6.402-6.402H111.579z M145.823,122.743v21.554
							c0,0.772-0.629,1.401-1.402,1.401h-32.842c-0.773,0-1.402-0.629-1.402-1.401v-21.554c0-0.773,0.629-1.402,1.402-1.402h32.842
							C145.194,121.341,145.823,121.97,145.823,122.743z"/>
					</g>
				</g>
			</g>
		</g>
		<g>
			<g>
				<g>
					<g>
						<path class="st8" d="M162.091,133.52v-22.935c0-0.156,0.127-0.283,0.284-0.283h10.194c0.103,0,0.198,0.056,0.248,0.146
							l1.121,2.018c0.67,1.206,2.191,1.643,3.399,0.972c1.207-0.671,1.642-2.192,0.972-3.399l-1.121-2.019
							c-0.932-1.676-2.701-2.717-4.619-2.717h-10.194c-2.914,0-5.284,2.37-5.284,5.283v22.935c0,1.381,1.119,2.5,2.5,2.5
							S162.091,134.9,162.091,133.52z"/>
					</g>
				</g>
			</g>
			<g>
				<g>
					<g>
						<path class="st8" d="M196.334,150.698c3.53,0,6.402-2.872,6.402-6.401v-21.554c0-3.53-2.872-6.402-6.402-6.402h-32.841
							c-3.53,0-6.402,2.872-6.402,6.402v21.554c0,3.529,2.872,6.401,6.402,6.401H196.334z M162.091,144.297v-21.554
							c0-0.773,0.629-1.402,1.402-1.402h32.841c0.773,0,1.402,0.629,1.402,1.402v21.554c0,0.772-0.629,1.401-1.402,1.401h-32.841
							C162.72,145.698,162.091,145.069,162.091,144.297z"/>
					</g>
				</g>
			</g>
		</g>
		<g>
			<g>
				<g>
					<g>
						<path class="st2" d="M68.741,159.096H58.547c-2.914,0-5.284,2.37-5.284,5.284v22.935c0,1.381,1.119,2.5,2.5,2.5
							s2.5-1.119,2.5-2.5V164.38c0-0.156,0.127-0.284,0.284-0.284h10.193c0.103,0,0.198,0.056,0.249,0.146l1.121,2.018
							c0.67,1.207,2.191,1.643,3.399,0.972c1.207-0.671,1.642-2.193,0.971-3.399l-1.121-2.018
							C72.429,160.137,70.659,159.096,68.741,159.096z"/>
					</g>
				</g>
			</g>
			<g>
				<g>
					<g>
						<path class="st2" d="M59.666,170.136c-3.53,0-6.402,2.872-6.402,6.401v21.554c0,3.53,2.872,6.402,6.402,6.402h32.841
							c3.53,0,6.402-2.872,6.402-6.402v-21.554c0-3.529-2.872-6.401-6.402-6.401H59.666z M93.909,176.537v21.554
							c0,0.773-0.629,1.402-1.402,1.402H59.666c-0.773,0-1.402-0.629-1.402-1.402v-21.554c0-0.772,0.629-1.401,1.402-1.401h32.841
							C93.28,175.136,93.909,175.765,93.909,176.537z"/>
					</g>
				</g>
			</g>
		</g>
		<g>
			<g>
				<g>
					<g>
						<path class="st8" d="M120.655,159.096h-10.194c-2.914,0-5.284,2.37-5.284,5.284v22.935c0,1.381,1.119,2.5,2.5,2.5
							s2.5-1.119,2.5-2.5V164.38c0-0.156,0.127-0.284,0.284-0.284h10.194c0.103,0,0.198,0.056,0.249,0.146l1.121,2.018
							c0.669,1.207,2.19,1.643,3.399,0.972c1.207-0.671,1.642-2.193,0.971-3.399l-1.121-2.018
							C124.343,160.137,122.573,159.096,120.655,159.096z"/>
					</g>
				</g>
			</g>
			<g>
				<g>
					<g>
						<path class="st8" d="M111.579,170.136c-3.53,0-6.402,2.872-6.402,6.401v21.554c0,3.53,2.872,6.402,6.402,6.402h32.842
							c3.53,0,6.402-2.872,6.402-6.402v-21.554c0-3.529-2.872-6.401-6.402-6.401H111.579z M145.823,176.537v21.554
							c0,0.773-0.629,1.402-1.402,1.402h-32.842c-0.773,0-1.402-0.629-1.402-1.402v-21.554c0-0.772,0.629-1.401,1.402-1.401h32.842
							C145.194,175.136,145.823,175.765,145.823,176.537z"/>
					</g>
				</g>
			</g>
		</g>
		<g>
			<g>
				<g>
					<g>
						<path class="st2" d="M162.091,187.314V164.38c0-0.156,0.127-0.284,0.284-0.284h10.194c0.103,0,0.198,0.056,0.248,0.146
							l1.121,2.018c0.67,1.206,2.191,1.643,3.399,0.972c1.207-0.671,1.642-2.192,0.972-3.399l-1.121-2.019
							c-0.932-1.676-2.701-2.717-4.619-2.717h-10.194c-2.914,0-5.284,2.37-5.284,5.284v22.935c0,1.381,1.119,2.5,2.5,2.5
							S162.091,188.695,162.091,187.314z"/>
					</g>
				</g>
			</g>
			<g>
				<g>
					<g>
						<path class="st2" d="M196.334,204.493c3.53,0,6.402-2.872,6.402-6.402v-21.554c0-3.529-2.872-6.401-6.402-6.401h-32.841
							c-3.53,0-6.402,2.872-6.402,6.401v21.554c0,3.53,2.872,6.402,6.402,6.402H196.334z M162.091,198.091v-21.554
							c0-0.772,0.629-1.401,1.402-1.401h32.841c0.773,0,1.402,0.629,1.402,1.401v21.554c0,0.773-0.629,1.402-1.402,1.402h-32.841
							C162.72,199.493,162.091,198.864,162.091,198.091z"/>
					</g>
				</g>
			</g>
		</g>
		<g>
			<g>
				<g>
					<g>
						<path class="st3" d="M58.547,56.507h10.193c0.103,0,0.198,0.056,0.249,0.146l1.121,2.018c0.456,0.823,1.308,1.287,2.186,1.287
							c0.411,0,0.828-0.102,1.213-0.315c1.207-0.671,1.642-2.193,0.971-3.399l-1.121-2.018c-0.931-1.677-2.701-2.719-4.619-2.719
							H58.547c-2.914,0-5.284,2.37-5.284,5.284v33.711c0,3.53,2.872,6.402,6.402,6.402h32.841c3.53,0,6.402-2.872,6.402-6.402
							V68.949c0-3.53-2.872-6.402-6.402-6.402H59.666c-0.482,0-0.95,0.058-1.402,0.16v-5.916
							C58.263,56.635,58.391,56.507,58.547,56.507z M57.326,63.878c0.269,0.215,0.6,0.329,0.937,0.329
							c0.11,0,0.22-0.012,0.329-0.036c0.364-0.082,0.725-0.123,1.073-0.123h32.841c2.703,0,4.902,2.199,4.902,4.902v21.553
							c0,2.703-2.199,4.902-4.902,4.902H59.666c-2.703,0-4.902-2.199-4.902-4.902V56.791c0-2.087,1.698-3.784,3.784-3.784h10.193
							c1.373,0,2.641,0.746,3.308,1.947l1.121,2.019c0.13,0.233,0.161,0.503,0.087,0.759c-0.073,0.257-0.242,0.47-0.475,0.599
							c-0.152,0.084-0.315,0.127-0.485,0.127c-0.363,0-0.699-0.197-0.875-0.516l-1.123-2.021c-0.315-0.564-0.912-0.915-1.558-0.915
							H58.547c-0.984,0-1.784,0.8-1.784,1.784v5.916C56.763,63.162,56.97,63.593,57.326,63.878z"/>
						<path class="st3" d="M56.763,90.502c0,1.6,1.302,2.902,2.902,2.902h32.841c1.6,0,2.902-1.302,2.902-2.902V68.949
							c0-1.6-1.302-2.902-2.902-2.902H59.666c-1.6,0-2.902,1.302-2.902,2.902V90.502z M58.263,68.949
							c0-0.773,0.629-1.402,1.402-1.402h32.841c0.773,0,1.402,0.629,1.402,1.402v21.553c0,0.773-0.629,1.402-1.402,1.402H59.666
							c-0.773,0-1.402-0.629-1.402-1.402V68.949z"/>
					</g>
				</g>
			</g>
			<g>
				<g>
					<g>
						<path class="st3" d="M160.591,90.502c0,1.6,1.302,2.902,2.902,2.902h32.841c1.6,0,2.902-1.302,2.902-2.902V68.949
							c0-1.6-1.302-2.902-2.902-2.902h-32.841c-1.6,0-2.902,1.302-2.902,2.902V90.502z M162.091,68.949
							c0-0.773,0.629-1.402,1.402-1.402h32.841c0.773,0,1.402,0.629,1.402,1.402v21.553c0,0.773-0.629,1.402-1.402,1.402h-32.841
							c-0.773,0-1.402-0.629-1.402-1.402V68.949z"/>
						<path class="st3" d="M162.375,56.507h10.194c0.103,0,0.198,0.057,0.248,0.146l1.121,2.018
							c0.457,0.822,1.309,1.287,2.188,1.287c0.411,0,0.827-0.101,1.211-0.315c1.207-0.671,1.642-2.192,0.972-3.399l-1.121-2.019
							c-0.932-1.676-2.702-2.718-4.619-2.718h-10.194c-2.914,0-5.284,2.37-5.284,5.284v33.711c0,3.53,2.872,6.402,6.402,6.402
							h32.841c3.53,0,6.402-2.872,6.402-6.402V68.949c0-3.53-2.872-6.402-6.402-6.402h-32.841c-0.482,0-0.95,0.058-1.402,0.16
							v-5.916C162.091,56.635,162.219,56.507,162.375,56.507z M161.154,63.878c0.269,0.215,0.6,0.329,0.937,0.329
							c0.11,0,0.22-0.012,0.329-0.037c0.364-0.082,0.724-0.123,1.073-0.123h32.841c2.703,0,4.902,2.199,4.902,4.902v21.553
							c0,2.703-2.199,4.902-4.902,4.902h-32.841c-2.703,0-4.902-2.199-4.902-4.902V56.791c0-2.087,1.697-3.784,3.784-3.784h10.194
							c1.373,0,2.64,0.746,3.307,1.946l1.121,2.019c0.268,0.482,0.093,1.092-0.389,1.36c-0.151,0.084-0.313,0.126-0.483,0.126
							c-0.364,0-0.7-0.197-0.877-0.515l-1.123-2.022c-0.315-0.564-0.912-0.914-1.557-0.914h-10.194c-0.984,0-1.784,0.8-1.784,1.784
							v5.916C160.591,63.162,160.798,63.593,161.154,63.878z"/>
					</g>
				</g>
			</g>
			<g>
				<g>
					<g>
						<path class="st5" d="M108.677,144.297c0,1.6,1.302,2.901,2.902,2.901h32.842c1.6,0,2.902-1.302,2.902-2.901v-21.554
							c0-1.6-1.302-2.902-2.902-2.902h-32.842c-1.6,0-2.902,1.302-2.902,2.902V144.297z M110.177,122.743
							c0-0.773,0.629-1.402,1.402-1.402h32.842c0.773,0,1.402,0.629,1.402,1.402v21.554c0,0.772-0.629,1.401-1.402,1.401h-32.842
							c-0.773,0-1.402-0.629-1.402-1.401V122.743z"/>
						<path class="st5" d="M110.461,110.302h10.194c0.103,0,0.198,0.056,0.249,0.146l1.121,2.018
							c0.456,0.823,1.308,1.287,2.187,1.287c0.411,0,0.828-0.102,1.213-0.315c1.207-0.671,1.642-2.193,0.971-3.399l-1.121-2.018
							c-0.931-1.677-2.701-2.718-4.619-2.718h-10.194c-2.914,0-5.284,2.37-5.284,5.283v33.712c0,3.529,2.872,6.401,6.402,6.401
							h32.842c3.53,0,6.402-2.872,6.402-6.401v-21.554c0-3.53-2.872-6.402-6.402-6.402h-32.842c-0.482,0-0.95,0.058-1.402,0.16
							v-5.916C110.177,110.429,110.305,110.302,110.461,110.302z M109.24,117.672c0.268,0.215,0.6,0.329,0.937,0.329
							c0.11,0,0.22-0.012,0.329-0.037c0.364-0.082,0.725-0.123,1.073-0.123h32.842c2.703,0,4.902,2.199,4.902,4.902v21.554
							c0,2.703-2.199,4.901-4.902,4.901h-32.842c-2.703,0-4.902-2.199-4.902-4.901v-33.712c0-2.086,1.697-3.783,3.784-3.783h10.194
							c1.374,0,2.641,0.746,3.308,1.946l1.121,2.019c0.13,0.233,0.161,0.503,0.087,0.759c-0.073,0.257-0.242,0.47-0.475,0.599
							c-0.152,0.084-0.315,0.127-0.485,0.127c-0.364,0-0.699-0.197-0.875-0.515l-1.123-2.022c-0.315-0.563-0.912-0.913-1.557-0.913
							h-10.194c-0.984,0-1.784,0.8-1.784,1.783v5.916C108.677,116.956,108.884,117.387,109.24,117.672z"/>
					</g>
				</g>
			</g>
			<g>
				<g>
					<g>
						<path class="st3" d="M56.763,198.091c0,1.6,1.302,2.902,2.902,2.902h32.841c1.6,0,2.902-1.302,2.902-2.902v-21.554
							c0-1.6-1.302-2.901-2.902-2.901H59.666c-1.6,0-2.902,1.302-2.902,2.901V198.091z M58.263,176.537
							c0-0.772,0.629-1.401,1.402-1.401h32.841c0.773,0,1.402,0.629,1.402,1.401v21.554c0,0.773-0.629,1.402-1.402,1.402H59.666
							c-0.773,0-1.402-0.629-1.402-1.402V176.537z"/>
						<path class="st3" d="M58.547,164.096h10.193c0.103,0,0.198,0.056,0.249,0.146l1.121,2.018
							c0.457,0.823,1.308,1.287,2.187,1.287c0.411,0,0.827-0.102,1.212-0.315c1.207-0.671,1.642-2.193,0.971-3.399l-1.121-2.018
							c-0.931-1.677-2.701-2.718-4.619-2.718H58.547c-2.914,0-5.284,2.37-5.284,5.284v33.711c0,3.53,2.872,6.402,6.402,6.402h32.841
							c3.53,0,6.402-2.872,6.402-6.402v-21.554c0-3.529-2.872-6.401-6.402-6.401H59.666c-0.482,0-0.95,0.058-1.402,0.16v-5.916
							C58.263,164.224,58.391,164.096,58.547,164.096z M57.326,171.467c0.269,0.215,0.6,0.329,0.937,0.329
							c0.11,0,0.22-0.012,0.329-0.036c0.364-0.082,0.725-0.123,1.073-0.123h32.841c2.703,0,4.902,2.199,4.902,4.901v21.554
							c0,2.703-2.199,4.902-4.902,4.902H59.666c-2.703,0-4.902-2.199-4.902-4.902V164.38c0-2.087,1.698-3.784,3.784-3.784h10.193
							c1.374,0,2.641,0.746,3.308,1.946l1.121,2.019c0.13,0.233,0.161,0.503,0.087,0.759c-0.073,0.257-0.242,0.47-0.475,0.599
							c-0.151,0.084-0.314,0.127-0.484,0.127c-0.364,0-0.699-0.197-0.876-0.515l-1.123-2.022c-0.315-0.563-0.912-0.913-1.557-0.913
							H58.547c-0.984,0-1.784,0.8-1.784,1.784v5.916C56.763,170.751,56.97,171.182,57.326,171.467z"/>
					</g>
				</g>
			</g>
			<g>
				<g>
					<g>
						<path class="st3" d="M160.591,198.091c0,1.6,1.302,2.902,2.902,2.902h32.841c1.6,0,2.902-1.302,2.902-2.902v-21.554
							c0-1.6-1.302-2.901-2.902-2.901h-32.841c-1.6,0-2.902,1.302-2.902,2.901V198.091z M162.091,176.537
							c0-0.772,0.629-1.401,1.402-1.401h32.841c0.773,0,1.402,0.629,1.402,1.401v21.554c0,0.773-0.629,1.402-1.402,1.402h-32.841
							c-0.773,0-1.402-0.629-1.402-1.402V176.537z"/>
						<path class="st3" d="M162.375,164.096h10.194c0.103,0,0.198,0.056,0.248,0.146l1.121,2.018
							c0.457,0.822,1.309,1.287,2.188,1.287c0.411,0,0.827-0.101,1.211-0.315c1.207-0.671,1.642-2.192,0.972-3.399l-1.121-2.019
							c-0.932-1.676-2.701-2.717-4.619-2.717h-10.194c-2.914,0-5.284,2.37-5.284,5.284v33.711c0,3.53,2.872,6.402,6.402,6.402
							h32.841c3.53,0,6.402-2.872,6.402-6.402v-21.554c0-3.529-2.872-6.401-6.402-6.401h-32.841c-0.482,0-0.95,0.058-1.402,0.16
							v-5.916C162.091,164.224,162.219,164.096,162.375,164.096z M161.154,171.467c0.269,0.215,0.6,0.329,0.937,0.329
							c0.11,0,0.22-0.012,0.329-0.037c0.364-0.082,0.724-0.123,1.073-0.123h32.841c2.703,0,4.902,2.199,4.902,4.901v21.554
							c0,2.703-2.199,4.902-4.902,4.902h-32.841c-2.703,0-4.902-2.199-4.902-4.902V164.38c0-2.087,1.697-3.784,3.784-3.784h10.194
							c1.373,0,2.64,0.746,3.307,1.945l1.121,2.019c0.268,0.482,0.093,1.092-0.389,1.36c-0.151,0.084-0.313,0.126-0.483,0.126
							c-0.364,0-0.7-0.197-0.877-0.515l-1.12-2.016c-0.314-0.567-0.912-0.918-1.56-0.918h-10.194c-0.984,0-1.784,0.8-1.784,1.784
							v5.916C160.591,170.751,160.798,171.182,161.154,171.467z"/>
					</g>
				</g>
			</g>
		</g>
		<g>
			<g>
				<g>
					<g>
						<path class="st9" d="M110.461,56.507h10.194c0.103,0,0.198,0.056,0.249,0.146l1.121,2.018
							c0.456,0.823,1.307,1.287,2.186,1.287c0.411,0,0.828-0.102,1.214-0.315c1.207-0.671,1.642-2.193,0.971-3.399l-1.121-2.018
							c-0.931-1.677-2.701-2.719-4.619-2.719h-10.194c-2.914,0-5.284,2.37-5.284,5.284v33.711c0,3.53,2.872,6.402,6.402,6.402
							h32.842c3.53,0,6.402-2.872,6.402-6.402V68.949c0-3.53-2.872-6.402-6.402-6.402h-32.842c-0.482,0-0.95,0.058-1.402,0.16
							v-5.916C110.177,56.635,110.305,56.507,110.461,56.507z M109.24,63.878c0.269,0.215,0.6,0.329,0.937,0.329
							c0.11,0,0.22-0.012,0.329-0.037c0.364-0.082,0.724-0.123,1.073-0.123h32.842c2.703,0,4.902,2.199,4.902,4.902v21.553
							c0,2.703-2.199,4.902-4.902,4.902h-32.842c-2.703,0-4.902-2.199-4.902-4.902V56.791c0-2.087,1.697-3.784,3.784-3.784h10.194
							c1.373,0,2.641,0.746,3.308,1.947l1.121,2.019c0.13,0.233,0.161,0.503,0.087,0.759c-0.073,0.257-0.242,0.47-0.475,0.599
							c-0.152,0.084-0.315,0.127-0.486,0.127c-0.363,0-0.698-0.197-0.875-0.516l-1.123-2.021c-0.315-0.564-0.912-0.915-1.558-0.915
							h-10.194c-0.984,0-1.784,0.8-1.784,1.784v5.916C108.677,63.162,108.884,63.593,109.24,63.878z"/>
						<path class="st9" d="M108.677,90.502c0,1.6,1.302,2.902,2.902,2.902h32.842c1.6,0,2.902-1.302,2.902-2.902V68.949
							c0-1.6-1.302-2.902-2.902-2.902h-32.842c-1.6,0-2.902,1.302-2.902,2.902V90.502z M110.177,68.949
							c0-0.773,0.629-1.402,1.402-1.402h32.842c0.773,0,1.402,0.629,1.402,1.402v21.553c0,0.773-0.629,1.402-1.402,1.402h-32.842
							c-0.773,0-1.402-0.629-1.402-1.402V68.949z"/>
					</g>
				</g>
			</g>
			<g>
				<g>
					<g>
						<path class="st9" d="M58.547,110.302h10.193c0.103,0,0.198,0.056,0.249,0.146l1.121,2.018
							c0.457,0.823,1.308,1.287,2.187,1.287c0.411,0,0.827-0.102,1.212-0.315c1.207-0.671,1.642-2.193,0.971-3.399l-1.121-2.018
							c-0.931-1.677-2.701-2.718-4.619-2.718H58.547c-2.914,0-5.284,2.37-5.284,5.283v33.712c0,3.529,2.872,6.401,6.402,6.401
							h32.841c3.53,0,6.402-2.872,6.402-6.401v-21.554c0-3.53-2.872-6.402-6.402-6.402H59.666c-0.482,0-0.95,0.058-1.402,0.16
							v-5.916C58.263,110.429,58.391,110.302,58.547,110.302z M57.326,117.672c0.269,0.215,0.6,0.329,0.937,0.329
							c0.11,0,0.22-0.012,0.329-0.036c0.364-0.082,0.725-0.123,1.073-0.123h32.841c2.703,0,4.902,2.199,4.902,4.902v21.554
							c0,2.703-2.199,4.901-4.902,4.901H59.666c-2.703,0-4.902-2.199-4.902-4.901v-33.712c0-2.086,1.698-3.783,3.784-3.783h10.193
							c1.374,0,2.641,0.746,3.308,1.946l1.121,2.019c0.13,0.233,0.161,0.503,0.087,0.759c-0.073,0.257-0.242,0.47-0.475,0.599
							c-0.151,0.084-0.314,0.127-0.484,0.127c-0.364,0-0.699-0.197-0.876-0.515l-1.123-2.022c-0.315-0.563-0.912-0.913-1.557-0.913
							H58.547c-0.984,0-1.784,0.8-1.784,1.783v5.916C56.763,116.956,56.97,117.387,57.326,117.672z"/>
						<path class="st9" d="M56.763,144.297c0,1.6,1.302,2.901,2.902,2.901h32.841c1.6,0,2.902-1.302,2.902-2.901v-21.554
							c0-1.6-1.302-2.902-2.902-2.902H59.666c-1.6,0-2.902,1.302-2.902,2.902V144.297z M58.263,122.743
							c0-0.773,0.629-1.402,1.402-1.402h32.841c0.773,0,1.402,0.629,1.402,1.402v21.554c0,0.772-0.629,1.401-1.402,1.401H59.666
							c-0.773,0-1.402-0.629-1.402-1.401V122.743z"/>
					</g>
				</g>
			</g>
			<g>
				<g>
					<g>
						<path class="st9" d="M162.375,110.302h10.194c0.103,0,0.198,0.056,0.248,0.146l1.121,2.018
							c0.457,0.822,1.309,1.287,2.188,1.287c0.411,0,0.827-0.101,1.211-0.315c1.207-0.671,1.642-2.192,0.972-3.399l-1.121-2.019
							c-0.932-1.676-2.701-2.717-4.619-2.717h-10.194c-2.914,0-5.284,2.37-5.284,5.283v33.712c0,3.529,2.872,6.401,6.402,6.401
							h32.841c3.53,0,6.402-2.872,6.402-6.401v-21.554c0-3.53-2.872-6.402-6.402-6.402h-32.841c-0.482,0-0.95,0.058-1.402,0.16
							v-5.916C162.091,110.429,162.219,110.302,162.375,110.302z M161.154,117.672c0.268,0.215,0.6,0.329,0.937,0.329
							c0.11,0,0.22-0.012,0.329-0.037c0.364-0.082,0.725-0.123,1.073-0.123h32.841c2.703,0,4.902,2.199,4.902,4.902v21.554
							c0,2.703-2.199,4.901-4.902,4.901h-32.841c-2.703,0-4.902-2.199-4.902-4.901v-33.712c0-2.086,1.697-3.783,3.784-3.783h10.194
							c1.373,0,2.64,0.746,3.307,1.945l1.121,2.019c0.268,0.482,0.093,1.092-0.389,1.36c-0.151,0.084-0.313,0.126-0.483,0.126
							c-0.364,0-0.7-0.197-0.877-0.515l-1.12-2.016c-0.314-0.567-0.912-0.918-1.56-0.918h-10.194c-0.984,0-1.784,0.8-1.784,1.783
							v5.916C160.591,116.956,160.798,117.387,161.154,117.672z"/>
						<path class="st9" d="M160.591,144.297c0,1.6,1.302,2.901,2.902,2.901h32.841c1.6,0,2.902-1.302,2.902-2.901v-21.554
							c0-1.6-1.302-2.902-2.902-2.902h-32.841c-1.6,0-2.902,1.302-2.902,2.902V144.297z M162.091,122.743
							c0-0.773,0.629-1.402,1.402-1.402h32.841c0.773,0,1.402,0.629,1.402,1.402v21.554c0,0.772-0.629,1.401-1.402,1.401h-32.841
							c-0.773,0-1.402-0.629-1.402-1.401V122.743z"/>
					</g>
				</g>
			</g>
			<g>
				<g>
					<g>
						<path class="st9" d="M110.461,164.096h10.194c0.103,0,0.198,0.056,0.249,0.146l1.121,2.018
							c0.456,0.823,1.308,1.287,2.187,1.287c0.411,0,0.828-0.102,1.213-0.315c1.207-0.671,1.642-2.193,0.971-3.399l-1.121-2.018
							c-0.931-1.677-2.701-2.718-4.619-2.718h-10.194c-2.914,0-5.284,2.37-5.284,5.284v33.711c0,3.53,2.872,6.402,6.402,6.402
							h32.842c3.53,0,6.402-2.872,6.402-6.402v-21.554c0-3.529-2.872-6.401-6.402-6.401h-32.842c-0.482,0-0.95,0.058-1.402,0.16
							v-5.916C110.177,164.224,110.305,164.096,110.461,164.096z M109.24,171.467c0.269,0.215,0.6,0.329,0.937,0.329
							c0.11,0,0.22-0.012,0.329-0.037c0.364-0.082,0.724-0.123,1.073-0.123h32.842c2.703,0,4.902,2.199,4.902,4.901v21.554
							c0,2.703-2.199,4.902-4.902,4.902h-32.842c-2.703,0-4.902-2.199-4.902-4.902V164.38c0-2.087,1.697-3.784,3.784-3.784h10.194
							c1.374,0,2.641,0.746,3.308,1.946l1.121,2.019c0.13,0.233,0.161,0.503,0.087,0.759c-0.073,0.257-0.242,0.47-0.475,0.599
							c-0.152,0.084-0.315,0.127-0.485,0.127c-0.364,0-0.699-0.197-0.875-0.515l-1.123-2.022c-0.315-0.563-0.912-0.913-1.557-0.913
							h-10.194c-0.984,0-1.784,0.8-1.784,1.784v5.916C108.677,170.751,108.884,171.182,109.24,171.467z"/>
						<path class="st9" d="M108.677,198.091c0,1.6,1.302,2.902,2.902,2.902h32.842c1.6,0,2.902-1.302,2.902-2.902v-21.554
							c0-1.6-1.302-2.901-2.902-2.901h-32.842c-1.6,0-2.902,1.302-2.902,2.901V198.091z M110.177,176.537
							c0-0.772,0.629-1.401,1.402-1.401h32.842c0.773,0,1.402,0.629,1.402,1.401v21.554c0,0.773-0.629,1.402-1.402,1.402h-32.842
							c-0.773,0-1.402-0.629-1.402-1.402V176.537z"/>
					</g>
				</g>
			</g>
		</g>
	</g>
</g>
</svg>
